<?xml version="1.0" ?><svg enable-background="new 0 0 515.91 728.5" height="512" id="Layer_1" version="1.1" viewBox="0 0 512.00003 512" width="512" xml:space="preserve" xmlns="http://www.w3.org/2000/svg" xmlns:cc="http://creativecommons.org/ns#" xmlns:dc="http://purl.org/dc/elements/1.1/" xmlns:inkscape="http://www.inkscape.org/namespaces/inkscape" xmlns:rdf="http://www.w3.org/1999/02/22-rdf-syntax-ns#" xmlns:sodipodi="http://sodipodi.sourceforge.net/DTD/sodipodi-0.dtd" xmlns:svg="http://www.w3.org/2000/svg"><defs id="defs7"/><path d="m 0,-1.5e-5 0,512.000025 512.00003,0 0,-512.000025 L 0,-1.5e-5 z" id="path5060" style="fill:#94bd31;fill-opacity:1;fill-rule:nonzero;stroke:none"/><g id="g4602" style="fill:#ffffff;fill-opacity:1" transform="matrix(1.6430061,0,0,1.6430061,-1664.569,-2212.4612)"><path d="m 1233.936,1561.3155 v -82.33 -9.873 l 0,0 v -11.163 h 0.026 -129.899 -0.127 v 11.457 9.578 82.33 c 0,8.229 5.791,14.634 14.02,14.634 h 10.781 c -0.372,1 0.199,2.845 0.199,4.201 v 0.795 4.709 24.346 c 0,7.799 5.701,14.134 13.5,14.134 7.799,0 13.5,-6.334 13.5,-14.134 v -24.346 -4.709 -0.795 c 0,-1.348 0.302,-3.201 -0.055,-4.201 h 26.255 c -0.372,1 -0.201,2.845 -0.201,4.201 v 0.795 4.709 24.346 c 0,7.799 5.701,14.134 13.5,14.134 7.814,0 13.5,-6.334 13.5,-14.134 v -24.346 -4.709 -0.795 c 0,-1.348 0.702,-3.201 0.345,-4.201 h 10.766 c 8.245,10e-4 13.89,-6.404 13.89,-14.633 z" id="path6-5" style="fill:#ffffff;fill-opacity:1"/><path d="m 1244.936,1471.7835 v 60.463 c 0,7.814 5.697,14.134 13.511,14.134 7.807,0 13.489,-6.32 13.489,-14.134 v -60.463 c 0,-7.814 -5.69,-14.134 -13.489,-14.134 -7.814,0 -13.511,6.32 -13.511,14.134 z" id="path8" style="fill:#ffffff;fill-opacity:1"/><path d="m 1079.429,1546.3795 c 7.807,0 13.507,-6.32 13.507,-14.134 v -60.463 c 0,-7.814 -5.701,-14.134 -13.507,-14.134 -7.806,0 -13.493,6.32 -13.493,14.134 v 60.463 c 0,7.815 5.686,14.134 13.493,14.134 z" id="path10" style="fill:#ffffff;fill-opacity:1"/><path d="m 1206.715,1393.1555 5.868,-8.813 c 0.729,-1.086 0.423,-2.544 -0.641,-3.266 -1.093,-0.729 -2.558,-0.43 -3.273,0.656 l -6.305,9.454 -2.646,3.973 -2.69,4.031 c -8.4991,-3.302 -18.011,-5.153 -28.034,-5.153 -10.008,0 -19.506,1.851 -28.019,5.153 l -2.69,-4.031 -2.6311,-3.973 -6.3049,-9.454 c -0.7221,-1.086 -2.187,-1.37 -3.273,-0.656 -1.086,0.714 -1.37,2.179 -0.656,3.266 l 5.868,8.813 2.631,3.929 2.646,3.853 c -20.001,9.308 -33.523,27.012 -33.523,47.012 h 131.925 c 0,-20 -13.529,-37.711 -33.53,-47.012 l 2.66,-3.92 2.618,-3.862 z m -65.973,36.22 c -3.905,0 -7.07,-3.165 -7.07,-7.07 0,-3.905 3.166,-7.07 7.07,-7.07 3.905,0 7.07,3.166 7.07,7.07 0,3.904 -3.165,7.07 -7.07,7.07 z m 63.612,-7.071 c 0,3.905 -3.166,7.07 -7.07,7.07 -3.904,0 -7.07,-3.165 -7.07,-7.07 0,-3.905 3.166,-7.07 7.07,-7.07 3.904,0 7.07,3.165 7.07,7.07 z" id="path12" style="fill:#ffffff;fill-opacity:1"/></g></svg>