<?xml version="1.0" ?><svg enable-background="new 0 0 515.91 728.5" height="512" id="Layer_1" version="1.1" viewBox="0 0 512.00003 512" width="512" xml:space="preserve" xmlns="http://www.w3.org/2000/svg" xmlns:cc="http://creativecommons.org/ns#" xmlns:dc="http://purl.org/dc/elements/1.1/" xmlns:inkscape="http://www.inkscape.org/namespaces/inkscape" xmlns:rdf="http://www.w3.org/1999/02/22-rdf-syntax-ns#" xmlns:sodipodi="http://sodipodi.sourceforge.net/DTD/sodipodi-0.dtd" xmlns:svg="http://www.w3.org/2000/svg"><defs id="defs7"/><g id="g2998" transform="translate(442.60662,436.48545)"><path d="m -442.60661,-436.48545 0,512 512,0 0,-512 -512,0 z" id="path5060" style="fill:#1793d1;fill-opacity:1;fill-rule:nonzero;stroke:none"/><path d="m -186.64411,-380.48543 c -17.8037,43.6498 -28.542,72.202 -48.3641,114.55432 12.1535,12.8826 27.0712,27.88501 51.2975,44.82887 -26.0457,-10.71765 -43.812,-21.4779 -57.0891,-32.64384 -25.3684,52.93517 -65.1135,128.33898 -145.7691,273.26061 63.3926,-36.59762 112.5333,-59.16045 158.3302,-67.76983 -1.9665,-8.45804 -3.0846,-17.60706 -3.0086,-27.15307 l 0.075,-2.03084 c 1.0059,-40.61393 22.1332,-71.84605 47.1606,-69.72546 25.0273,2.1206 44.4808,36.78356 43.4749,77.39752 -0.1891,7.64226 -1.0511,14.99403 -2.5573,21.81271 45.2996,8.86141 93.915,31.36648 156.4498,67.46897 -12.3307,-22.70158 -23.3368,-43.16541 -33.8473,-62.65513 -16.5557,-12.8318 -33.8242,-29.53242 -69.0485,-47.61188 24.2112,6.29108 41.546,13.54932 55.0582,21.66227 -106.863,-198.9604 -115.5166,-225.39812 -152.1624,-311.39522 z" id="path2518" style="fill:#ffffff;fill-opacity:1;fill-rule:evenodd;stroke:none"/></g></svg>