<?xml version="1.0" ?><svg enable-background="new 0 0 515.91 728.5" height="512" id="Layer_1" version="1.1" viewBox="0 0 512.00003 512" width="512" xml:space="preserve" xmlns="http://www.w3.org/2000/svg" xmlns:cc="http://creativecommons.org/ns#" xmlns:dc="http://purl.org/dc/elements/1.1/" xmlns:inkscape="http://www.inkscape.org/namespaces/inkscape" xmlns:rdf="http://www.w3.org/1999/02/22-rdf-syntax-ns#" xmlns:sodipodi="http://sodipodi.sourceforge.net/DTD/sodipodi-0.dtd" xmlns:svg="http://www.w3.org/2000/svg"><defs id="defs7"/><g id="g4281" transform="translate(1.5e-5,0)"><path d="M 0,0 0,512 512,512 512,0 0,0 z" id="path5060" style="fill:#d70751;fill-opacity:1;fill-rule:nonzero;stroke:none"/><path d="m 379.33825,227.20271 c 0.402,10.79343 -3.1497,16.03822 -6.36191,25.31272 l -5.7761,2.8726 c -4.7222,9.17621 0.4687,5.82558 -2.9128,13.12099 -7.3805,6.55379 -22.3642,20.50123 -27.1624,21.77895 -3.5071,-0.0759 2.3723,-4.13692 3.1407,-5.72287 -9.8689,6.77271 -7.921,10.16802 -23.0165,14.29149 l -0.4378,-0.98733 c -37.214,17.51252 -88.9118,-17.18638 -88.2327,-64.52377 -0.3932,3.00216 -1.1303,2.25161 -1.95239,3.45781 -1.92101,-24.35219 11.24939,-48.81165 33.46129,-58.81431 21.72531,-10.74875 47.19451,-6.34382 62.74611,8.171 -8.542,-11.1955 -25.55851,-23.06557 -45.7113,-21.96659 -19.7507,0.32166 -38.233,12.8708 -44.3978,26.50109 -10.1146,6.36615 -11.294,24.55323 -15.6991,27.88599 -5.9369,43.60259 11.1556,62.433 40.07369,84.59616 4.53861,3.06467 1.27771,3.53376 1.8853,5.86579 -9.6053,-4.49429 -18.3974,-11.28486 -25.63449,-19.59883 3.8422,5.6156 7.98309,11.07488 13.33979,15.36366 -9.0643,-3.06024 -21.16689,-21.94872 -24.6919,-22.71714 15.6142,27.95747 63.3399,49.03059 88.3445,38.57219 -11.5706,0.42889 -26.2644,0.23678 -39.2557,-4.56572 -5.4728,-2.81006 -12.884,-8.62223 -11.5576,-9.70785 34.1139,12.73677 69.3443,9.64084 98.8566,-14.01446 7.5145,-5.85242 15.7165,-15.80148 18.0888,-15.93551 -3.5696,5.36993 0.612,2.58221 -2.1311,7.32222 7.4698,-12.06669 -3.2568,-4.91424 7.7289,-20.83635 l 4.0566,5.58438 c -1.519,-10.02505 12.4417,-22.18551 11.021,-38.0272 3.2033,-4.84271 3.5696,5.21803 0.1743,16.35993 4.7132,-12.3615 1.2464,-14.34957 2.4527,-24.55328 1.3,3.43105 3.029,7.07203 3.9091,10.69514 -3.0737,-11.95048 3.1407,-20.11702 4.6865,-27.06396 -1.528,-0.67013 -4.7401,5.28054 -5.4817,-8.82774 0.1116,-6.12937 1.711,-3.21213 2.3231,-4.72213 -1.1973,-0.69247 -4.3559,-5.39222 -6.2725,-14.40313 1.3805,-2.12205 3.717,5.49051 5.6113,5.79877 -1.2197,-7.16138 -3.315,-12.62508 -3.4043,-18.12453 -5.5398,-11.57078 -1.9613,1.54574 -6.4467,-4.96785 -5.8972,-18.37922 4.8875,-4.26644 5.62021,-12.61168 8.9262,12.93335 14.0143,32.99229 16.35979,41.29737 -1.787,-10.1278 -4.6686,-19.94283 -8.19309,-29.43624 2.72029,1.14817 -4.37371,-20.83183 3.5334,-6.2768 -8.4388,-31.0266 -36.0881,-60.020547 -61.53051,-73.619566 3.105,2.845797 7.032,6.419759 5.62921,6.982679 -12.6607,-7.527678 -10.4358,-8.121865 -12.24971,-11.30273 -10.2977,-4.194959 -10.98569,0.344003 -17.7988,0.0089 -19.4335,-10.310928 -23.1773,-9.216374 -41.0605,-15.667411 l 0.8131,3.80628 c -12.87059,-4.288777 -14.9972,1.617216 -28.90429,0.0089 -0.8444,-0.656733 4.4582,-2.394573 8.8275,-3.024501 -12.4462,1.644066 -11.8655,-2.457119 -24.0441,0.451225 2.9978,-2.104181 6.1787,-3.502486 9.3775,-5.289469 -10.1459,0.61648 -24.2317,5.905994 -19.8847,1.090042 -16.5519,7.389227 -45.9526,17.758234 -62.45085,33.229114 l -0.51824,-3.46679 c -7.55913,9.07346 -32.96575,27.099747 -34.98956,38.862587 l -2.02381,0.4691 c -3.92655,6.66101 -6.47753,14.20656 -9.59589,21.05521 -5.14218,8.76966 -7.54126,3.37744 -6.80858,4.7534 -10.1186,20.51464 -15.153555,37.75017 -19.491565,51.89422 3.09156,4.62385 0.076,27.84132 1.24198,46.42154 -5.07516,91.77984 64.412095,180.88369 140.368415,201.45194 11.1327,3.9895 27.6846,3.84653 41.7664,4.23964 -16.6104,-4.75337 -18.7549,-2.51516 -34.9449,-8.15761 -11.6733,-5.50391 -14.22881,-11.78071 -22.5027,-18.95996 l 3.2747,5.78536 c -16.2168,-5.74069 -9.4306,-7.10325 -22.6278,-11.28034 l 3.4981,-4.5613 c -5.2583,-0.40208 -13.9249,-8.85455 -16.2927,-13.54987 l -5.7543,0.22784 c -6.90684,-8.51501 -10.59214,-14.66672 -10.31962,-19.43353 l -1.85851,3.3149 c -2.10422,-3.61422 -25.42449,-31.97824 -13.32676,-25.37531 -2.24719,-2.0461 -5.23599,-3.33718 -8.47453,-9.22978 l 2.46163,-2.81005 c -5.81231,-7.49198 -10.71323,-17.09257 -10.33796,-20.2913 3.10496,4.19049 5.25833,4.97678 7.39383,5.69606 -14.70277,-36.47248 -15.52927,-2.0059 -26.65754,-37.12475 l 2.34994,-0.18764 c -1.80043,-2.72964 -2.90392,-5.67368 -4.35142,-8.57309 l 1.02755,-10.20817 c -10.57921,-12.22305 -2.95754,-52.02378 -1.42516,-73.84741 1.04988,-8.87242 8.83239,-18.32111 14.74253,-33.13972 l -3.60041,-0.61653 c 6.88855,-12.0086 39.32266,-48.24431 54.35113,-46.38584 7.2777,-9.14043 -1.4475,-0.0357 -2.8727,-2.33203 15.989,-16.54305 21.015,-11.68689 31.8042,-14.66672 11.6287,-6.90221 -9.985,2.69837 -4.472,-2.63131 20.117,-5.13315 14.2511,-11.677997 40.4887,-14.282547 2.7699,1.57254 -6.4199,2.43031 -8.7252,4.47195 16.7534,-8.20228 53.0247,-6.33041 76.5952,4.547887 27.3276,12.78145 58.0502,50.54502 59.2654,86.07489 l 1.3805,0.37081 c -0.697,14.12614 2.1623,30.46373 -2.8012,45.46552 l 3.3552,-7.10777" id="path14-1" style="fill:#ffffff;fill-opacity:1"/></g></svg>