<?xml version="1.0" ?><svg enable-background="new 0 0 515.91 728.5" height="512" id="Layer_1" version="1.1" viewBox="0 0 512.00003 512" width="512" xml:space="preserve" xmlns="http://www.w3.org/2000/svg" xmlns:cc="http://creativecommons.org/ns#" xmlns:dc="http://purl.org/dc/elements/1.1/" xmlns:inkscape="http://www.inkscape.org/namespaces/inkscape" xmlns:rdf="http://www.w3.org/1999/02/22-rdf-syntax-ns#" xmlns:sodipodi="http://sodipodi.sourceforge.net/DTD/sodipodi-0.dtd" xmlns:svg="http://www.w3.org/2000/svg"><defs id="defs7"/><g id="g3363"><path d="M 2.5e-5,-6.5000001e-6 2.5e-5,512.00001 512,512.00001 512,-6.5e-6 2.5e-5,-6.5e-6 z" id="path4232" style="fill:#333333;fill-opacity:1;fill-rule:nonzero;stroke:none"/><path d="m 256.01688,56.000005 c -110.45461,0 -200.016838,89.562135 -200.016838,200.016765 0,110.45463 89.562228,199.98322 200.016838,199.98322 110.4545,0 199.98311,-89.52859 199.98311,-199.98322 0,-110.45463 -89.52861,-200.016765 -199.98311,-200.016765 z m 13.2606,22.056232 c 52.0684,0.0709 49.1725,54.976123 48.8459,84.565653 -0.2111,19.38741 10.4908,32.4688 21.4519,46.29459 9.7927,11.5736 22.6011,28.52334 29.9455,47.93957 5.9843,15.82059 8.3455,33.31187 2.4171,50.89382 1.7759,0.67419 3.5065,1.71052 5.2036,3.18926 0.011,0.009 0.024,-0.009 0.034,0 4.264,3.63082 5.6213,9.24174 6.815,14.43558 1.1946,5.1969 2.3028,10.05683 4.6328,12.68989 l 0,0.0336 c 7.0915,7.87191 10.1701,13.74808 9.8699,19.00127 -0.3005,5.25558 -4.1724,8.86005 -8.9635,11.74989 -9.5825,5.77954 -24.0589,10.15636 -32.7654,20.71339 l -1.6785,-1.37642 1.6785,1.40999 c -9.1344,10.87067 -20.4249,17.12177 -31.0533,17.96057 -10.6145,0.8374 -20.5899,-4.0521 -25.9504,-14.77132 -0.011,-0.015 0.011,-0.052 0,-0.067 -0.7162,-1.3712 -1.2836,-2.79681 -1.645,-4.29704 -13.8279,0.76779 -25.8274,-3.42733 -35.4512,-2.65212 -14.18591,0.78114 -23.04991,4.22398 -31.12031,4.26353 -3.1188,6.85415 -9.1706,11.28335 -16.6513,12.99205 -10.3182,2.3567 -23.2652,0.023 -36.0219,-6.6471 l 0,-0.034 c -11.9159,-6.31569 -27.0394,-5.72532 -38.2039,-8.05705 -5.5823,-1.16594 -10.52276,-3.24334 -12.92493,-7.92278 -2.39715,-4.66988 -1.9615,-11.10408 1.44356,-20.41125 1.06525,-3.31616 0.25554,-8.18896 -0.53714,-13.3613 -0.79276,-5.17268 -1.55494,-10.76249 1.04071,-15.61059 0,-0.009 0,-0.0244 0,-0.0336 2.86732,-5.50218 7.6154,-7.75554 11.9177,-9.2992 4.3008,-1.543 8.1974,-2.5978 10.9443,-5.33781 2.94,-3.11023 5.5938,-7.73596 9.1649,-11.54847 0.477,-0.50939 0.95,-1.00514 1.4772,-1.47713 -1.6826,-11.09518 0.1324,-22.84161 3.9612,-34.34326 8.1124,-24.37005 25.2684,-47.77648 37.4319,-62.24086 10.3531,-14.7167 13.4065,-26.57473 14.4692,-41.62821 0.8636,-20.58481 -14.578,-82.061593 43.60881,-86.747773 2.3022,-0.18359 4.4971,-0.26857 6.6136,-0.26857 z m 6.9156,45.589573 c -3.0155,0.028 -5.5335,0.95276 -8.1242,2.92069 -2.5909,1.96785 -4.4556,4.38548 -5.9421,7.75493 -1.4866,3.36946 -2.1234,6.67641 -2.0814,10.54134 l 0,0.30214 c 0.025,1.09071 0.1022,2.11124 0.235,3.12211 2.3377,0.55636 4.8098,1.46934 7.4527,2.7864 -0.181,-1.04531 -0.2589,-2.11497 -0.2349,-3.28997 0,-0.0849 0.019,-0.1502 0.034,-0.23499 0.071,-2.13783 0.4246,-3.96204 1.1749,-5.77424 0.7504,-1.81212 1.6696,-3.1099 2.8872,-4.12925 1.1604,-0.97149 2.2668,-1.40174 3.5585,-1.40998 0.063,0 0.1372,-0.009 0.2014,0 1.3733,0.0429 2.5124,0.56007 3.6592,1.67855 1.1469,1.11849 1.962,2.46195 2.5851,4.33068 0.5946,1.78377 0.882,3.53417 0.8393,5.5728 0,0.0988 -0.034,0.1503 -0.034,0.235 -0.071,2.12367 -0.4583,3.91445 -1.2086,5.74067 -0.4967,1.20903 -1.0672,2.17241 -1.7457,2.98783 1.8715,0.64937 4.1228,1.46564 7.0499,2.71926 0.4222,0.17369 0.8501,0.34893 1.2421,0.53713 1.155,-1.39707 2.1142,-3.01234 2.9543,-4.93495 1.4724,-3.36954 2.1431,-6.66224 2.115,-10.54133 -0.027,-0.0993 -0.034,-0.20302 -0.034,-0.30214 -0.071,-3.78013 -0.7823,-6.94939 -2.2828,-10.20563 -1.5291,-3.34103 -3.4431,-5.74297 -6.0765,-7.65421 -2.592,-1.88141 -5.1026,-2.75284 -8.057,-2.75284 l -0.1679,0 z m -40.78891,3.22283 c -2.1661,0.11331 -3.9569,1.01681 -5.7406,2.78641 -1.7839,1.76976 -3.0076,3.90905 -3.9279,6.88208 -0.9201,2.97303 -1.2918,5.85737 -1.1079,9.19849 l 0,0.0336 c 0.1983,3.34119 0.8693,6.16566 2.115,8.99706 1.0519,2.39055 2.2851,4.1955 3.8271,5.63995 0.7072,-0.52102 1.3021,-0.9681 1.8129,-1.34285 0.7965,-0.58519 1.2438,-0.93062 2.2157,-1.67855 -0.1541,-0.10844 -0.3135,-0.23407 -0.47,-0.36929 -0.9344,-0.80685 -1.6263,-1.85116 -2.2493,-3.32354 -0.6087,-1.42996 -0.9716,-2.83321 -1.1413,-4.5321 l 0,-0.20143 c -0.1558,-1.7555 -0.066,-3.2769 0.302,-4.83424 0.3681,-1.55726 0.8663,-2.74425 1.645,-3.69282 0.7786,-0.94858 1.6274,-1.42592 2.6186,-1.5107 0.093,-0.009 0.1777,0 0.2686,0 0.8802,-0.009 1.671,0.30941 2.5178,1.0407 0.9344,0.80702 1.6458,1.83698 2.2828,3.32354 0.5947,1.42988 0.9714,2.84746 1.1414,4.5321 0,0.0709 -0.016,0.13056 0,0.20143 0.1214,1.26844 0.092,2.40377 -0.067,3.52497 1.6232,-1.07192 3.4929,-2.02542 5.6063,-2.75283 0.3724,-0.12806 0.7537,-0.25919 1.1415,-0.36928 0.1103,-1.27933 0.1226,-2.6252 0.034,-4.02854 -0.1841,-3.34119 -0.8356,-6.16558 -2.0814,-8.99706 -1.2459,-2.83147 -2.7657,-4.84073 -4.7336,-6.41209 -1.8139,-1.44873 -3.5456,-2.11498 -5.5057,-2.11498 -0.166,0 -0.3341,-0.009 -0.5035,0 z m 18.867,23.13051 c -2.3862,0.01 -4.5013,0.45013 -6.4122,1.10785 -5.551,1.91082 -9.2382,5.90393 -11.5484,8.09064 -0.4502,0.43218 -1.0373,0.84291 -2.4507,1.87998 -1.4225,1.04416 -3.5725,2.59735 -6.6471,4.90138 -2.7343,2.04952 -3.6302,4.73183 -2.6857,7.85566 0.9446,3.12374 3.9887,6.72091 9.5006,9.83634 l 0,0.0336 c 3.422,2.00938 5.7447,4.6932 8.4264,6.84851 2.6817,2.15513 5.6472,3.83994 10.6085,4.12925 5.82781,0.33708 10.11071,-1.39269 13.89841,-3.55854 3.7878,-2.16594 7.0246,-4.81214 10.7092,-6.00924 l 0,-0.0336 c 7.5567,-2.35965 12.9498,-7.0999 14.637,-11.61561 0.8436,-2.25773 0.84,-4.39929 -0.1678,-6.37852 -1.0079,-1.97905 -3.0992,-3.86225 -6.6135,-5.30424 -7.3043,-3.12835 -10.4933,-3.35822 -14.5699,-6.00923 -6.6366,-4.26703 -12.0956,-5.75879 -16.65131,-5.74066 l -0.034,-0.0336 z m 31.89251,18.90054 0.1343,2.4507 c -1.1206,0.0667 -3.0711,0.89786 -5.3714,2.18213 -2.3002,1.28419 -5.0114,2.98111 -7.9899,4.69995 -5.9571,3.43769 -13.0057,6.91566 -20.47841,6.91566 -7.4624,0 -13.3494,-3.41998 -17.5912,-6.78137 -2.1209,-1.68077 -3.8736,-3.35161 -5.17,-4.56567 -0.6482,-0.60705 -1.1843,-1.107 -1.5779,-1.40999 -0.2422,-0.18704 -0.4614,-0.24138 -0.5035,-0.26857 -0.026,-0.0173 0.036,-0.008 0.1007,-0.63785 l 0.067,-1.88 c 0.8952,0 1.3113,0.3933 1.8464,0.80571 0.5351,0.41233 1.1178,0.95847 1.7793,1.57785 1.3226,1.23871 2.996,2.84174 5.002,4.43139 4.012,3.17928 9.3519,6.2778 16.047,6.2778 6.68461,0 13.39291,-3.24142 19.23631,-6.61351 2.9214,-1.68597 5.6261,-3.39503 8.0235,-4.73353 2.3973,-1.33833 4.4798,-2.33321 6.4456,-2.4507 z m 6.6471,8.92993 c -2.8891,4.12242 -7.9829,7.63806 -14.3684,9.63491 -3.022,0.98624 -6.2128,3.5247 -10.2056,5.80781 -3.9987,2.28657 -8.9046,4.29853 -15.30851,3.92782 -5.4864,-0.31954 -9.1115,-2.36378 -12.0184,-4.69996 -2.9013,-2.33164 -5.1417,-4.89067 -8.1243,-6.64708 -1.0194,-0.57968 -3.2955,-2.13519 -3.9613,-2.61855 -1.2912,24.35169 -17.5399,54.92809 -25.3127,72.5472 -5.3363,12.69776 -8.555,26.27005 -8.9299,39.58036 -14.0288,-18.70357 -3.7686,-42.69328 1.7121,-53.07595 6.1154,-11.35589 7.058,-14.45408 5.5729,-13.36131 -5.5166,8.99855 -14.1258,23.3266 -17.4906,38.06966 -1.7532,7.68081 -2.1068,15.46593 0.1679,22.66051 2.2743,7.19383 7.1567,13.83047 15.8456,19.23625 11.8269,7.25333 19.8553,14.516 24.6075,20.94838 4.7509,6.43289 6.2517,12.05379 4.7671,16.04701 -0.7423,1.99669 -2.2287,3.53018 -4.3642,4.49853 -1.7171,0.77858 -3.8452,1.20856 -6.3449,1.20856 1.2708,1.59656 2.5492,3.20514 3.7935,4.83425 1.9486,2.55107 3.8219,5.14436 5.4721,7.75493 24.3502,16.61791 53.02461,10.24142 73.68861,-4.49854 2.0536,-7.05526 4.0949,-13.74072 4.3978,-18.66555 0.4957,-9.7941 1.0234,-18.50854 2.8199,-25.71548 1.7983,-7.21271 5.0212,-13.07456 10.9443,-16.31557 0.9499,-0.51977 1.8775,-0.94834 2.82,-1.2757 0.066,-0.60918 0.1599,-1.22319 0.2686,-1.81284 1.6989,-11.25512 11.7584,-11.79388 24.3725,-6.24423 12.1619,5.50268 16.7309,10.30186 14.6706,16.81913 0.074,-0.009 0.161,0 0.235,0 0.7996,-0.0164 1.6175,-0.0305 2.4507,0 2.5298,-8.22201 -2.7263,-14.2556 -16.9534,-21.18338 -0.9561,-0.45261 -1.8909,-0.85617 -2.82,-1.24213 1.8992,-7.71806 1.5012,-15.52368 -0.2686,-22.96265 -3.8811,-16.31408 -14.5679,-30.78285 -22.6941,-37.96894 -1.499,-0.0618 -1.3453,1.26216 1.6787,4.19639 7.4896,6.89251 23.8693,31.64286 15.0062,54.62022 -2.5328,-0.64791 -4.9019,-0.97225 -7.0499,-0.90642 -3.3899,-18.72993 -11.2304,-34.27776 -15.1741,-41.59463 -7.4195,-13.7911 -18.9394,-42.03788 -23.9027,-61.60301 z m 40.5539,111.99327 c -3.905,0.0182 -6.597,2.04669 -7.1506,6.7478 -1.0335,6.9229 2.0696,16.08334 8.4263,17.72555 6.2293,1.69891 15.3336,-4.74672 17.457,-8.79563 2.5202,-5.36566 -0.3707,-9.03283 -9.6013,-13.29417 -3.4296,-1.53434 -6.5449,-2.39599 -9.1314,-2.38355 z m -10.4742,12.65632 c -0.2106,0.1042 -0.4244,0.21912 -0.6379,0.33571 -4.5813,2.50691 -7.1532,6.9756 -8.7955,13.56273 -1.6422,6.58714 -2.191,15.13406 -2.6857,24.90978 l 0,0.0336 c -0.4678,7.62982 -3.9463,16.97614 -6.3786,26.11834 -2.4319,9.14233 -3.6592,17.80631 -0.7721,23.29837 l 0.034,0.0336 0,0.0336 c 4.6538,9.34065 12.5375,13.14345 21.6869,12.42135 9.1495,-0.722 19.5456,-6.3107 28.0654,-16.44989 9.8119,-11.88488 25.17,-16.42423 33.8397,-21.65337 4.3369,-2.61568 6.6968,-5.01468 6.8822,-8.2585 0.1854,-3.24363 -2.0202,-8.327 -8.7957,-15.84558 l 0,-0.0336 c -3.5241,-3.96684 -4.4648,-9.52423 -5.6399,-14.63701 -1.1751,-5.11277 -2.5209,-9.67057 -5.3714,-12.08561 l -0.034,0 c -3.7094,-3.24429 -7.3207,-3.52898 -11.6492,-3.42425 -0.9342,0.0222 -1.9032,0.0612 -2.8872,0.10071 -4.9345,5.67292 -16.6021,12.64347 -24.7083,10.50776 -7.4075,-1.86864 -11.6309,-10.50178 -12.1528,-18.96768 z m -148.88791,0.63785 c -3.9085,0.0272 -6.5067,1.86644 -9.0978,4.63281 -3.071,3.2784 -5.7051,7.89692 -9.1985,11.58204 l 0,0.0336 -0.034,0 c -3.7786,3.78689 -8.5538,4.93068 -12.5892,6.37852 -4.0354,1.44775 -7.2839,2.9784 -9.50066,7.25136 l -0.0336,0.0336 c -1.73137,3.21463 -1.31416,7.8209 -0.53714,12.89132 0.7771,5.07034 1.9363,10.47211 0.33571,15.40915 l 0,0.0336 0,0.0671 c -3.23638,8.82545 -3.23519,13.98665 -1.71213,16.95342 1.52298,2.96685 4.85182,4.54418 9.93712,5.60638 10.1679,2.12358 26.021,1.43636 39.3453,8.49341 12.0434,6.30002 24.1059,8.34292 33.0004,6.31142 8.8969,-2.0321 14.6953,-7.61897 15.4763,-17.89337 l 0,-0.0336 0,-0.0336 c 0.6035,-6.02401 -4.0486,-13.91287 -10.0378,-21.75409 -5.9892,-7.84116 -13.0334,-15.5025 -16.3827,-22.49266 l 0,-0.0336 c -4.1678,-8.94893 -8.2655,-17.0191 -12.6228,-22.92908 -4.3571,-5.90998 -8.8466,-9.52074 -14.0327,-10.30633 -0.7615,-0.11511 -1.5057,-0.20003 -2.1822,-0.20143 l -0.1342,0 z" id="path4846" style="fill:#ffffff;fill-opacity:1;fill-rule:nonzero;stroke:none"/></g></svg>