<?xml version="1.0" ?><svg height="512" id="Layer_1" version="1.1" viewBox="0 0 512 512" width="512" xml:space="preserve" xmlns="http://www.w3.org/2000/svg" xmlns:cc="http://creativecommons.org/ns#" xmlns:dc="http://purl.org/dc/elements/1.1/" xmlns:inkscape="http://www.inkscape.org/namespaces/inkscape" xmlns:rdf="http://www.w3.org/1999/02/22-rdf-syntax-ns#" xmlns:sodipodi="http://sodipodi.sourceforge.net/DTD/sodipodi-0.dtd" xmlns:svg="http://www.w3.org/2000/svg"><defs id="defs12"/><g id="g6026"><rect height="512" id="rect2987" style="fill:#4086cd;fill-opacity:1;fill-rule:nonzero;stroke:none" width="512" x="0" y="5.6843419e-014"/><path d="M 276.644,86.29783 C 291.00847,69.40891 315.28852,56.84445 335.32411,56 c 2.55556,23.46226 -6.84891,46.95564 -20.75115,63.88456 -13.92447,16.8978 -36.71563,30.06227 -59.08455,28.30671 -3.04001,-22.95559 8.23112,-46.89341 21.15559,-61.89344 z m 113.98243,320.045 c -16.62669,24.38228 -33.82229,48.61787 -60.96901,49.12454 -26.71559,0.50667 -35.28006,-15.87559 -65.769,-15.87559 -30.52006,0 -40.07119,15.36892 -65.29344,16.38226 -26.20894,0.98666 -46.1423,-26.33338 -62.8979,-50.60899 -34.23561,-49.63119 -60.377881,-140.33802 -25.23115,-201.55146 17.40447,-30.40005 48.59565,-49.63119 82.38682,-50.1423 25.74226,-0.47556 50.05785,17.40892 65.77344,17.40892 15.75114,0 45.26674,-21.47115 76.28902,-18.32004 12.98669,0.53778 49.43564,5.2489 72.84902,39.60895 -1.85333,1.21778 -43.50675,25.53338 -43.00453,76.18236 0.50667,60.50233 52.85344,80.60903 53.46232,80.88458 -0.47999,1.42224 -8.37334,28.71116 -27.59559,56.90677 z" id="Apple" style="fill:#ffffff;fill-opacity:1"/></g></svg>