<?xml version="1.0" ?><svg enable-background="new 0 0 515.91 728.5" height="512" id="Layer_1" version="1.1" viewBox="0 0 512.00003 512" width="512" xml:space="preserve" xmlns="http://www.w3.org/2000/svg" xmlns:cc="http://creativecommons.org/ns#" xmlns:dc="http://purl.org/dc/elements/1.1/" xmlns:inkscape="http://www.inkscape.org/namespaces/inkscape" xmlns:rdf="http://www.w3.org/1999/02/22-rdf-syntax-ns#" xmlns:sodipodi="http://sodipodi.sourceforge.net/DTD/sodipodi-0.dtd" xmlns:svg="http://www.w3.org/2000/svg"><defs id="defs7"/><g id="g4934" style="fill:#bc1142;fill-opacity:1" transform="translate(-866.20581,-605.4602)"><path d="m 866.20585,605.46021 0,511.99999 511.99995,0 0,-511.99999 -511.99995,0 z" id="path4232" style="fill:#bc1142;fill-opacity:1;fill-rule:nonzero;stroke:none"/><path d="m 1207.1614,730.42117 c 17.6779,10.2085 40.277,4.1537 50.4789,-13.5199 10.2076,-17.6795 4.157,-40.277 -13.5225,-50.4839 -17.677,-10.2043 -40.2736,-4.1503 -50.4813,13.53 -10.2035,17.6728 -4.1504,40.2695 13.5249,50.4738 z m -75.6494,239.0126 c -16.2541,0 -31.6575,-3.6134 -45.4836,-10.0458 l -25.6841,46.02563 c 21.454,10.623 45.6061,16.625 71.1677,16.625 14.8648,0 29.2388,-2.0597 42.8979,-5.8426 2.4171,-14.8455 11.2321,-28.52813 25.2856,-36.64343 14.0292,-8.0994 30.2656,-8.9023 44.3191,-3.5908 27.3318,-26.8746 45.1162,-63.4392 47.7052,-104.1583 l -52.6794,-0.7635 c -4.8475,55.1561 -51.1198,98.3972 -107.5284,98.3972 z m 0,-215.9486 c 56.4086,0 102.6809,43.2494 107.5284,98.3996 l 52.6794,-0.7719 c -2.5924,-40.7157 -20.3776,-77.2795 -47.7127,-104.1532 -14.0518,5.3081 -30.2858,4.5036 -44.3166,-3.5975 -14.0519,-8.1119 -22.8652,-21.7929 -25.2822,-36.6401 -13.6575,-3.7787 -28.0315,-5.8409 -42.8963,-5.8409 -25.5616,0 -49.712,6.0003 -71.1643,16.6275 l 25.6824,46.0197 c 13.8244,-6.4323 29.2278,-10.0458 45.4819,-10.0458 z m -107.9731,107.9747 c 0,-36.5302 18.1544,-68.7951 45.9115,-88.3329 l -27.0222,-45.2688 c -32.3463,21.6134 -56.41024,54.6509 -66.4048,93.349 11.67676,9.5164 19.13676,24.0087 19.13676,40.2561 0,16.2448 -7.4626,30.7371 -19.13836,40.2518 9.99286,38.7006 34.0568,71.7373 66.4047,93.3507 l 27.0239,-45.2705 c -27.7571,-19.5353 -45.9115,-51.8002 -45.9115,-88.3354 z m 183.6276,131.0362 c -17.6804,10.20773 -23.7335,32.80353 -13.5283,50.47633 10.2076,17.6795 32.8026,23.7368 50.483,13.5291 17.6744,-10.2051 23.7301,-32.8026 13.5224,-50.4805 -10.2035,-17.67113 -32.8027,-23.72843 -50.4771,-13.52493 z M 943.25097,824.50177 c -20.41788,0 -36.9631,16.5427 -36.9631,36.9615 0,20.4128 16.54522,36.958 36.9631,36.958 20.41113,0 36.95799,-16.5452 36.95799,-36.958 0,-20.4188 -16.54686,-36.9615 -36.95799,-36.9615" id="circle-of-friends" style="fill:#bc1142;fill-opacity:1;fill-rule:nonzero;stroke:none"/></g><path d="m 183.8765,56.004401 c -2.023,0.063 -4.1752,0.7973 -6.646,2.7465 -6.0525,-2.3339 -11.944,-3.1579 -17.1917,1.593801 -8.1034,-1.051101 -10.7205,1.1289 -12.7157,3.6621 -1.7788,-0.038 -13.3273,-1.8192 -18.61579,6.0697 -13.29031,-1.5727 -17.47495,7.824701 -12.71571,16.581201 -2.71431,4.2022 -5.53398,8.333201 0.81381,16.343897 -2.24556,4.4618 -0.84761,9.2999 4.44202,15.1571 -1.39606,6.2723 1.35119,10.6913 6.27308,14.1399 -0.92057,8.5832 7.85269,13.5833 10.47779,15.3607 1.008,5.0014 3.1152,9.7332 13.1565,12.3427 1.6561,7.4524 7.6854,8.7438 13.5294,10.3082 -19.3154,11.22791 -35.88585,25.97681 -35.77344,62.22211 l -2.81441,5.0525 c -22.14777,13.4686 -42.078076,56.7732 -10.91855,91.96 2.03538,11.0137 5.43785,18.91351 8.47714,27.66941 4.5457,35.2815 34.22206,51.82519 42.04666,53.77889 11.4663,8.7339 23.6897,17.0166 40.2154,22.8205 15.5783,16.0669 32.4351,22.1857 50.083,22.1864 17.64791,6e-4 34.50471,-6.1195 50.08302,-22.1864 16.5257,-5.8039 28.7493,-14.0866 40.2154,-22.8205 7.8246,-1.9537 37.501,-18.49739 42.0467,-53.77889 3.0391,-8.7559 6.4416,-16.65571 8.4772,-27.66941 31.15941,-35.1868 11.2291,-78.4914 -10.9187,-91.96 l -2.8143,-5.0525 c 0.1125,-36.2453 -16.4582,-50.9942 -35.7735,-62.22211 5.8438,-1.5644 11.8733,-2.8558 13.5295,-10.3082 10.0412,-2.6095 12.1485,-7.3413 13.1565,-12.3427 2.625,-1.7774 11.3984,-6.7775 10.4778,-15.3607 4.9217,-3.4486 7.6691,-7.8676 6.273,-14.1399 5.2896,-5.8572 6.6877,-10.6953 4.4421,-15.1571 6.3478,-8.010696 3.5281,-12.141697 0.8138,-16.343897 4.759,-8.7565 0.5746,-18.153901 -12.7158,-16.581201 -5.2884,-7.8889 -16.8369,-6.1077 -18.6157,-6.0697 -1.9952,-2.5332 -4.6123,-4.713201 -12.7158,-3.6621 -5.2478,-4.751701 -11.1392,-3.927701 -17.1917,-1.593801 -2.4708,-1.9492 -4.6232,-2.6836 -6.646,-2.7465 -3.8608,-0.1198 -7.1496,2.2288 -10.7151,3.357 -8.707,-2.8435 -10.6792,1.024901 -14.9537,2.610901 -9.48951,-2.0057 -12.36571,2.3773 -16.92041,6.9852 l -5.3236,-0.102 C 265.90031,77.288603 258.82721,94.441404 256,94.441404 c -2.8272,0 -9.9003,-17.152801 -24.2107,-25.585902 l -5.3236,0.102 c -4.5549,-4.6079 -7.4309,-8.9909 -16.9204,-6.9852 -4.2745,-1.586 -6.2468,-5.454401 -14.9536,-2.610901 -3.5657,-1.1282 -6.8545,-3.4768 -10.7152,-3.357 z m 0.5086,10.138701 c 7.2684,2.6929 11.0464,6.1652 14.9876,9.5961 1.3375,-1.8035 3.3674,-3.142 0.8816,-7.4939 5.1616,2.9746 9.0594,6.4828 11.9358,10.410001 3.192,-2.033101 1.8823,-4.795901 1.8989,-7.358101 5.3641,4.3628 8.7869,8.995001 12.9531,13.529501 0.8394,-0.612 1.5554,-2.69 2.204,-5.9679 12.7959,12.4134 30.87241,43.687997 4.6455,56.084697 C 211.5835,116.5454 184.9481,103.17 155.4273,93.134303 193.3794,112.7035 215.46,128.5128 227.5508,141.9965 c -6.1943,24.8239 -38.5056,25.9922 -50.3203,25.2958 2.4197,-1.126 4.4393,-2.5058 5.1541,-4.5776 -2.9646,-2.1079 -13.4807,-0.2178 -20.82,-4.3403 2.8192,-0.5842 4.1416,-1.1402 5.4593,-3.2214 -6.9325,-2.2112 -14.3931,-4.1357 -18.7853,-7.799 2.3704,0.029 4.5679,0.5521 7.6634,-1.5936 -6.21,-3.3476 -12.8232,-6.0076 -17.9716,-11.122 3.2109,-0.079 6.6569,-0.04 7.6634,-1.2207 -5.6841,-3.5213 -10.4754,-7.4491 -14.44507,-11.7325 4.49327,0.5424 6.37347,0.1053 7.45987,-0.6782 -4.2963,-4.4006 -9.71623,-8.1076 -12.30879,-13.5294 3.33616,1.149 6.37855,1.5561 8.57889,-0.1357 -1.4601,-3.2934 -7.72413,-5.2222 -11.32549,-12.919196 3.51217,0.3405 7.25752,0.7664 8.00242,0 -1.63021,-6.641501 -4.4112,-10.371901 -7.1547,-14.241601 7.51674,-0.1108 18.89427,0.025 18.37847,-0.6102 l -4.6455,-4.747201 c 7.3422,-1.9769 14.8574,0.331 20.3112,2.034501 2.4489,-1.932501 -0.064,-4.388701 -3.0517,-6.883501 6.2396,0.8331 11.8919,2.2615 16.9881,4.2385 2.7231,-2.4585 -1.7949,-4.8994 -3.9673,-7.3581 9.6398,1.8295 13.7439,4.3783 17.802,6.9512 2.9458,-2.8227 0.1561,-5.2053 -1.8311,-7.6632 z m 143.22982,0 c -1.9873,2.4579 -4.7768,4.8405 -1.8311,7.6632 4.0581,-2.5729 8.1622,-5.1217 17.802,-6.9512 -2.1722,2.4587 -6.6904,4.8996 -3.9673,7.3581 5.0962,-1.977 10.7484,-3.4054 16.9881,-4.2385 -2.9877,2.4948 -5.5006,4.951 -3.0516,6.883501 5.4538,-1.703501 12.9689,-4.011401 20.3112,-2.034501 l -4.6456,4.747201 c -0.5158,0.6351 10.8617,0.4994 18.3786,0.6102 -2.7436,3.8697 -5.5246,7.6001 -7.1548,14.241601 0.7449,0.7664 4.4903,0.3405 8.0024,0 -3.6013,7.696996 -9.8653,9.625796 -11.3254,12.919196 2.2003,1.6918 5.2427,1.2847 8.5789,0.1357 -2.5927,5.4218 -8.0125,9.1288 -12.3089,13.5294 1.0864,0.7836 2.9666,1.2206 7.4599,0.6782 -3.9696,4.2834 -8.761,8.2112 -14.445,11.7325 1.0065,1.1805 4.4525,1.1415 7.6633,1.2207 -5.1483,5.1144 -11.7615,7.7744 -17.9715,11.122 3.0955,2.1457 5.293,1.6229 7.6633,1.5936 -4.3922,3.6633 -11.8528,5.5878 -18.7853,7.799 1.3177,2.0812 2.6402,2.6372 5.4593,3.2214 -7.3393,4.1225 -17.8555,2.2324 -20.82,4.3403 0.7148,2.0718 2.7344,3.4516 5.1541,4.5776 -11.8146,0.6964 -44.12601,-0.4719 -50.32031,-25.2958 12.09071,-13.4837 34.17151,-29.293 72.12361,-48.862197 -29.5209,10.035697 -56.1564,23.411097 -78.46441,41.809197 -26.22701,-12.3967 -8.1506,-43.671297 4.6455,-56.084697 0.6485,3.2779 1.3646,5.3559 2.204,5.9679 4.1663,-4.5345 7.589,-9.166701 12.95311,-13.529501 0.016,2.5622 -1.2932,5.325 1.8989,7.358101 2.8765,-3.927201 6.7742,-7.435401 11.9358,-10.410001 -2.4859,4.3519 -0.4559,5.6904 0.8816,7.4939 3.9412,-3.4309 7.7191,-6.9032 14.9876,-9.5961 z M 256,168.8345 c 22.64321,0 41.52522,15.38571 41.57192,24.43171 0.059,11.348 -16.57241,23.0014 -41.26671,23.2953 -0.103,5e-4 -0.2021,-5e-4 -0.30521,0 -0.1031,-5e-4 -0.2024,5e-4 -0.3052,0 -24.6944,-0.2939 -41.3251,-11.9473 -41.2667,-23.2953 0.047,-9.046 18.9286,-24.43171 41.5719,-24.43171 z m -63.5446,7.44361 c 0.4638,-0.011 0.924,-0.011 1.3902,0 3.6686,0.019 7.4503,0.3347 11.2916,0.9833 12.9372,2.1739 -62.0165,67.6306 -63.1716,53.033 -1.0339,-33.3811 21.3028,-53.5498 50.4898,-54.0163 z m 125.69902,0 c 0.4662,-0.011 0.9264,-0.011 1.3902,0 29.187,0.4665 51.5238,20.6352 50.4898,54.0163 -1.1551,14.5976 -76.10891,-50.8591 -63.1716,-53.033 3.8412,-0.6486 7.623,-0.9638 11.2916,-0.9833 z m -113.76322,41.6736 c 4.3175,-0.032 8.692,0.604 12.953,2.0345 22.7256,7.6284 34.2108,34.2065 25.6689,59.34 -8.5421,25.1333 -33.9017,39.3328 -56.6274,31.7044 -22.7257,-7.6285 -34.2106,-34.2066 -25.6687,-59.3399 6.9404,-20.4209 24.9657,-33.5998 43.6742,-33.739 z m 103.21762,0 c 18.7086,0.1392 36.7338,13.3181 43.6743,33.739 8.5418,25.1333 -2.9432,51.7114 -25.6688,59.3399 -22.7256,7.6284 -48.08531,-6.5711 -56.62741,-31.7044 -8.5419,-25.1335 2.9433,-51.7116 25.66891,-59.34 4.261,-1.4305 8.6356,-2.066 12.953,-2.0345 z m -169.67842,28.0424 c 17.7084,0.2601 4.5471,84.2009 -11.49496,77.0741 -18.21166,-14.6474 -24.06651,-57.5223 9.69786,-76.8028 0.4769,-0.1279 0.9162,-0.211 1.3563,-0.2374 0.1434,-0.011 0.3014,-0.036 0.4408,-0.034 z m 236.13922,0 c 0.1394,0 0.2973,0.023 0.4408,0.034 0.4402,0.026 0.8795,0.1096 1.3563,0.2375 33.7643,19.2805 27.9094,62.1554 9.698,76.8028 -16.0423,7.1268 -29.2035,-76.814 -11.4951,-77.0741 z m -118.06972,58.0442 c 11.93541,0 23.11701,4.3256 31.22991,11.6718 8.65391,7.8358 13.69741,18.9948 13.63121,30.17851 0,10.9809 -4.9056,21.8716 -13.32601,29.6362 -8.2748,7.6301 -19.8366,12.1551 -31.53501,12.3088 -11.6985,-0.1537 -23.2601,-4.6787 -31.535,-12.3088 -8.4204,-7.7646 -13.326,-18.6553 -13.326,-29.6362 -0.066,-11.18371 4.9772,-22.34271 13.6312,-30.17851 8.1128,-7.3462 19.2943,-11.6718 31.2297,-11.6718 z m -104.4382,21.946 c 11.7243,-0.241 26.1433,9.0149 37.8079,22.54931 13.0098,15.6733 18.9271,43.2201 8.0704,51.33739 -10.2721,6.1969 -35.2359,3.6325 -52.9652,-21.83709 -11.9572,-21.3721 -10.3959,-43.11731 -2.0006,-49.50651 2.7462,-1.6721 5.8047,-2.4763 9.0875,-2.5431 z m 207.75762,0 c 0.3716,-0.011 0.7526,-0.011 1.1191,0 3.2828,0.066 6.3412,0.871 9.0875,2.5431 8.3953,6.3892 9.9566,28.13441 -2.0006,49.50651 -17.7296,25.46959 -42.6934,28.03399 -52.9653,21.83709 -10.8567,-8.11729 -4.9397,-35.66409 8.0704,-51.33739 11.2999,-13.11151 25.173,-22.21271 36.6889,-22.54931 z M 256,401.05791 c 18.16481,-0.2068 45.15972,7.4393 44.82712,17.1917 0.29,6.7523 -21.86041,26.2369 -44.45421,25.2618 -0.1251,0 -0.2479,-9e-4 -0.37291,0 -0.1251,-9e-4 -0.248,0 -0.3729,0 -22.5939,0.9751 -44.7441,-18.5095 -44.4542,-25.2618 -0.3326,-9.7524 26.6623,-17.3985 44.8271,-17.1917 z" id="path5175-4" style="fill:#ffffff;fill-opacity:1"/></svg>