<?xml version="1.0" ?><svg enable-background="new 0 0 515.91 728.5" height="512" id="Layer_1" version="1.1" viewBox="0 0 512.00003 512" width="512" xml:space="preserve" xmlns="http://www.w3.org/2000/svg" xmlns:cc="http://creativecommons.org/ns#" xmlns:dc="http://purl.org/dc/elements/1.1/" xmlns:inkscape="http://www.inkscape.org/namespaces/inkscape" xmlns:rdf="http://www.w3.org/1999/02/22-rdf-syntax-ns#" xmlns:sodipodi="http://sodipodi.sourceforge.net/DTD/sodipodi-0.dtd" xmlns:svg="http://www.w3.org/2000/svg"><defs id="defs7"/><g id="g4396" transform="translate(1.5e-5,-2.4999997e-7)"><path d="M 0,5e-7 0,512 512,512 512,5e-7 0,5e-7 z" id="path5060" style="fill:#00a1f1;fill-opacity:1;fill-rule:nonzero;stroke:none"/><g id="g4390" transform="matrix(1.4034317,0,0,1.4034317,-2373.7967,-1988.3353)"><polygon id="polygon15467" points="15,2.5 32,0 32,15 15,15 " style="fill:#ffffff;fill-opacity:1" transform="matrix(8.9067392,0,0,8.9067392,1731.3252,1456.6689)"/><polygon id="polygon15469" points="0,4.703 13,2.797 13,15 0,15 " style="fill:#ffffff;fill-opacity:1" transform="matrix(8.9067392,0,0,8.9067392,1731.3252,1456.6689)"/><polygon id="polygon15471" points="15,29.5 32,32 32,17 15,17 " style="fill:#ffffff;fill-opacity:1" transform="matrix(8.9067392,0,0,8.9067392,1731.3252,1456.6689)"/><polygon id="polygon15473" points="0,27.297 13,29.203 13,17 0,17 " style="fill:#ffffff;fill-opacity:1" transform="matrix(8.9067392,0,0,8.9067392,1731.3252,1456.6689)"/></g></g></svg>